<?xml version="1.0" encoding="UTF-8"?>
<svg version="1.1" xmlns="http://www.w3.org/2000/svg" width="320" height="320">
<path d="M0 0 C16 0 16 0 20.78125 4.20703125 C22.07495461 6.03846471 23.31449101 7.90924263 24.5 9.8125 C25.12390625 10.72193359 25.7478125 11.63136719 26.390625 12.56835938 C28.29661206 15.35448715 30.14820242 18.17756482 32 21 C34.64 24.63 37.28 28.26 40 32 C40.33 21.44 40.66 10.88 41 0 C44.96 0 48.92 0 53 0 C53.07410434 7.61716578 53.12858118 15.23412215 53.16479492 22.8515625 C53.17989015 25.44339655 53.20036824 28.03520503 53.22631836 30.62695312 C53.26266827 34.35032459 53.2797192 38.0733586 53.29296875 41.796875 C53.30845261 42.95741394 53.32393646 44.11795288 53.33988953 45.31365967 C53.34011612 46.39447815 53.34034271 47.47529663 53.34057617 48.58886719 C53.34723801 49.53928894 53.35389984 50.48971069 53.36076355 51.46893311 C52.93225257 54.47530652 52.09669726 55.82951237 50 58 C47.25 58.75 47.25 58.75 44 58 C38.63749678 53.000863 34.4088159 46.66574576 30.125 40.75 C28.98237765 39.18184933 27.83913799 37.6141483 26.6953125 36.046875 C26.1168457 35.25345703 25.53837891 34.46003906 24.94238281 33.64257812 C21.33357346 28.73285559 17.6649712 23.86788161 14 19 C13.97494385 20.145896 13.9498877 21.29179199 13.92407227 22.47241211 C13.83016894 26.70853598 13.72990725 30.94448928 13.62768555 35.18041992 C13.5842718 37.01664247 13.54260161 38.85290708 13.50268555 40.68920898 C13.44513831 43.32288311 13.38140002 45.95634421 13.31640625 48.58984375 C13.29969376 49.41588608 13.28298126 50.24192841 13.26576233 51.09300232 C13.11387171 56.88612829 13.11387171 56.88612829 12 58 C8.04 58 4.08 58 0 58 C0 38.86 0 19.72 0 0 Z " fill="#00A6E0" transform="translate(84,125)"/>
<path d="M0 0 C5.465625 -0.103125 10.93125 -0.20625 16.5625 -0.3125 C18.27381104 -0.35802002 19.98512207 -0.40354004 21.74829102 -0.45043945 C23.12514291 -0.46506075 24.50201664 -0.47779753 25.87890625 -0.48828125 C26.92637024 -0.526651 26.92637024 -0.526651 27.99499512 -0.5657959 C33.67482243 -0.57077384 36.92182318 1.32182424 41 5 C44.73524027 9.52160665 45.68690531 14.77541439 45.46484375 20.53125 C44.5126375 25.58834537 41.57562943 29.42437057 38 33 C38.37685464 36.20979099 39.78675447 38.53138901 41.50390625 41.22265625 C41.99697266 42.00833984 42.49003906 42.79402344 42.99804688 43.60351562 C44.04391051 45.24738868 45.09079149 46.89061491 46.13867188 48.53320312 C46.63044922 49.31759766 47.12222656 50.10199219 47.62890625 50.91015625 C48.08338135 51.62308838 48.53785645 52.33602051 49.00610352 53.07055664 C50 55 50 55 50 58 C45.31383657 59.13987759 41.64442504 59.42596401 37 58 C31.59256055 52.78654222 27.49669185 45.00338903 24.8828125 38.01171875 C22.19940655 34.69751853 22.19940655 34.69751853 12 35 C12 42.59 12 50.18 12 58 C8.04 58 4.08 58 0 58 C0 38.86 0 19.72 0 0 Z M12 11 C12 14.96 12 18.92 12 23 C14.75059381 23.08107646 17.49879021 23.14052813 20.25 23.1875 C21.02730469 23.21263672 21.80460937 23.23777344 22.60546875 23.26367188 C26.09520419 23.30841207 28.38576957 23.32332937 31.515625 21.67578125 C33.27476567 19.98858946 33.27476567 19.98858946 33.5 17 C33.27476567 14.01141054 33.27476567 14.01141054 31.515625 12.32421875 C27.79102968 10.36360103 24.38790425 10.67868718 20.25 10.8125 C19.45722656 10.82603516 18.66445313 10.83957031 17.84765625 10.85351562 C15.89814436 10.88874777 13.94898374 10.94255179 12 11 Z " fill="#00A6E0" transform="translate(254,125)"/>
<path d="M0 0 C2.01822917 0.06510417 4.03645833 0.13020833 6.0546875 0.1953125 C11.83885628 11.00150076 17.47264783 21.88293937 22.98751831 32.82879639 C23.65184379 34.14566259 24.31825338 35.4614797 24.98684692 36.77618408 C28.54377711 43.77708015 31.83407488 50.6403131 34.0546875 58.1953125 C29.7646875 58.1953125 25.4746875 58.1953125 21.0546875 58.1953125 C14.7846875 45.6553125 8.5146875 33.1153125 2.0546875 20.1953125 C-4.631011 32.71922658 -10.97467927 45.31662777 -16.9453125 58.1953125 C-21.2353125 58.1953125 -25.5253125 58.1953125 -29.9453125 58.1953125 C-29.15617024 53.46045894 -28.60517832 51.01588767 -26.56860352 46.95605469 C-26.07461563 45.96192566 -25.58062775 44.96779663 -25.07167053 43.94354248 C-24.53626144 42.88709534 -24.00085236 41.83064819 -23.44921875 40.7421875 C-22.90047592 39.64561829 -22.35173309 38.54904907 -21.78636169 37.41925049 C-20.62755835 35.107675 -19.46487568 32.79804071 -18.29858398 30.49023438 C-16.50946288 26.94857951 -14.73328756 23.40066016 -12.95898438 19.8515625 C-11.8314847 17.60639125 -10.70325457 15.36158665 -9.57421875 13.1171875 C-9.04083389 12.05264343 -8.50744904 10.98809937 -7.957901 9.89129639 C-7.46076096 8.909776 -6.96362091 7.92825562 -6.45141602 6.91699219 C-6.01475113 6.05128601 -5.57808624 5.18557983 -5.12818909 4.29364014 C-2.87021376 0.28817407 -2.87021376 0.28817407 0 0 Z " fill="#00A6E0" transform="translate(45.9453125,124.8046875)"/>
<path d="M0 0 C13.86 0 27.72 0 42 0 C42 3.63 42 7.26 42 11 C32.1 11 22.2 11 12 11 C12 22.55 12 34.1 12 46 C21.49892964 45.96040374 21.49892964 45.96040374 30.99780273 45.90991211 C32.17286377 45.90741455 33.3479248 45.90491699 34.55859375 45.90234375 C36.37315063 45.89448853 36.37315063 45.89448853 38.22436523 45.88647461 C41 46 41 46 42 47 C42.07226502 48.85287502 42.0838122 50.70833878 42.0625 52.5625 C42.05347656 53.57441406 42.04445312 54.58632812 42.03515625 55.62890625 C42.02355469 56.41136719 42.01195312 57.19382813 42 58 C36.50076251 58.07411371 31.00181521 58.12858464 25.50219727 58.16479492 C23.63105201 58.17988873 21.75994217 58.20036589 19.88891602 58.22631836 C17.20059474 58.26267593 14.51274087 58.27972015 11.82421875 58.29296875 C10.56782845 58.31619453 10.56782845 58.31619453 9.28605652 58.33988953 C3.49709469 58.34156999 3.49709469 58.34156999 1.27624512 56.81555176 C-0.47480338 54.32455756 -0.36138885 52.64230955 -0.34057617 49.6105957 C-0.34034958 48.50968094 -0.34012299 47.40876617 -0.33988953 46.27449036 C-0.32440567 45.08691635 -0.30892181 43.89934235 -0.29296875 42.67578125 C-0.28872391 41.45924362 -0.28447906 40.24270599 -0.28010559 38.98930359 C-0.26328851 35.09681229 -0.22562959 31.20483529 -0.1875 27.3125 C-0.17245713 24.67643976 -0.15876804 22.04037142 -0.14648438 19.40429688 C-0.11592473 12.9358395 -0.05720583 6.46849665 0 0 Z " fill="#00A6E0" transform="translate(205,125)"/>
<path d="M0 0 C3.96 0 7.92 0 12 0 C12.33 10.23 12.66 20.46 13 31 C23.82577627 17.13081362 23.82577627 17.13081362 34.42578125 3.08984375 C36 1 36 1 37 0 C39.53049402 -0.07313567 42.03304837 -0.09247527 44.5625 -0.0625 C45.62887695 -0.05573242 45.62887695 -0.05573242 46.71679688 -0.04882812 C48.47790013 -0.03700864 50.23896036 -0.01907263 52 0 C49.42449749 4.71387845 46.64212658 8.95296444 43.25 13.125 C42.2745702 14.34648264 41.30071346 15.56922252 40.328125 16.79296875 C39.79896484 17.4586084 39.26980469 18.12424805 38.72460938 18.81005859 C35.43743552 22.98417375 32.22087808 27.21216402 29 31.4375 C28.31526611 32.33065918 27.63053223 33.22381836 26.92504883 34.14404297 C23.78690931 38.25459012 20.70208569 42.37885932 17.77734375 46.64453125 C17.0493457 47.69265991 17.0493457 47.69265991 16.30664062 48.76196289 C15.42358219 50.04419271 14.5575206 51.3383772 13.71289062 52.64624023 C11.47388292 55.88164325 10.22190938 56.93776004 6.37890625 58.015625 C3 58 3 58 0 56 C-0.36076355 53.6335144 -0.36076355 53.6335144 -0.34057617 50.63232422 C-0.34034958 49.51131317 -0.34012299 48.39030212 -0.33988953 47.23532104 C-0.32440567 46.02071198 -0.30892181 44.80610291 -0.29296875 43.5546875 C-0.28872391 42.31453888 -0.28447906 41.07439026 -0.28010559 39.79666138 C-0.26613216 36.49864537 -0.23917361 33.2010665 -0.20599365 29.90319824 C-0.17531238 26.53838458 -0.16160446 23.17350696 -0.14648438 19.80859375 C-0.11334719 13.20553518 -0.06152902 6.6028526 0 0 Z " fill="#00A6E0" transform="translate(146,125)"/>
<path d="M0 0 C0.66 0 1.32 0 2 0 C3.64819336 2.29150391 3.64819336 2.29150391 5.58984375 5.4765625 C5.93503555 6.03942963 6.28022736 6.60229675 6.63587952 7.18222046 C7.36798787 8.37901335 8.09660246 9.57794927 8.82202148 10.77880859 C9.92278606 12.60064745 11.03354888 14.41604513 12.14648438 16.23046875 C15.301093 21.40019181 18.35029332 26.54745392 21 32 C15.9929065 33.11837271 11.96133334 33.4434805 7 32 C2.59645392 27.82901344 -0.21803643 22.23641281 -2.98535156 16.90112305 C-4.08371923 14.76869167 -4.08371923 14.76869167 -6 12 C-5.86810268 7.25169653 -3.15057048 3.40575688 0 0 Z " fill="#00A6E0" transform="translate(181,151)"/>
<path d="M0 0 C0.66 0 1.32 0 2 0 C2.02705729 1.77074917 2.04642195 3.54161711 2.0625 5.3125 C2.07410156 6.29863281 2.08570312 7.28476563 2.09765625 8.30078125 C2 11 2 11 1 14 C3.31 14 5.62 14 8 14 C7.04199699 19.17408583 3.76637396 22.66756789 0.625 26.75 C-0.26058594 27.93916016 -0.26058594 27.93916016 -1.1640625 29.15234375 C-1.73640625 29.90128906 -2.30875 30.65023437 -2.8984375 31.421875 C-3.42099121 32.10862305 -3.94354492 32.79537109 -4.48193359 33.50292969 C-6 35 -6 35 -9 35 C-8.85923685 33.0412957 -8.7122324 31.08303907 -8.5625 29.125 C-8.48128906 28.03445312 -8.40007813 26.94390625 -8.31640625 25.8203125 C-8 23 -8 23 -7 21 C-9.31 21 -11.62 21 -14 21 C-13.38438545 17.65233216 -12.18256962 15.58611708 -10.12890625 12.890625 C-9.55462891 12.13652344 -8.98035156 11.38242188 -8.38867188 10.60546875 C-7.78603516 9.82816406 -7.18339844 9.05085937 -6.5625 8.25 C-5.96373047 7.45722656 -5.36496094 6.66445312 -4.74804688 5.84765625 C-1.40492435 1.4974789 -1.40492435 1.4974789 0 0 Z " fill="#00A6E0" transform="translate(50,159)"/>
<path d="M0 0 C0.91644287 0.00523682 1.83288574 0.01047363 2.77709961 0.01586914 C3.76645508 0.0190918 4.75581055 0.02231445 5.77514648 0.02563477 C6.81606445 0.03401367 7.85698242 0.04239258 8.92944336 0.05102539 C10.49662109 0.05779297 10.49662109 0.05779297 12.09545898 0.06469727 C14.68600996 0.07652627 17.27644895 0.0930085 19.86694336 0.11352539 C19.89381615 1.92594591 19.91328051 3.73847772 19.92944336 5.55102539 C19.94104492 6.56036133 19.95264648 7.56969727 19.96459961 8.60961914 C19.86694336 11.11352539 19.86694336 11.11352539 18.86694336 12.11352539 C17.31738777 12.21252062 15.76340663 12.24432063 14.21069336 12.24633789 C12.80110352 12.24827148 12.80110352 12.24827148 11.36303711 12.25024414 C10.37432617 12.24637695 9.38561523 12.24250977 8.36694336 12.23852539 C7.37823242 12.24239258 6.38952148 12.24625977 5.37084961 12.25024414 C4.43112305 12.24895508 3.49139648 12.24766602 2.52319336 12.24633789 C1.65500977 12.24520996 0.78682617 12.24408203 -0.10766602 12.24291992 C-2.13305664 12.11352539 -2.13305664 12.11352539 -3.13305664 11.11352539 C-3.23129601 9.44923488 -3.26279295 7.78070608 -3.25805664 6.11352539 C-3.26063477 5.20602539 -3.26321289 4.29852539 -3.26586914 3.36352539 C-3.09102544 0.4014674 -2.96164902 0.15762468 0 0 Z " fill="#00A6E0" transform="translate(222.133056640625,147.886474609375)"/>
</svg>
